<svg aria-hidden="true" style="position:absolute;width:0;height:0;overflow:hidden" xmlns="http://www.w3.org/2000/svg">
  <defs>
    <symbol id="icon-book" viewBox="0 0 32 32">
      <path d="M24.535 2.5c-2.987 0-4.692-.076-6.305.746a6.825 6.825 0 0 0-2.984 2.984c-.822 1.613-.746 3.318-.746 6.305v15.467a1.5 1.5 0 0 0 2.746.835l.003-.005.133-.199c.926-1.389 1.328-1.953 1.703-2.262.389-.32.838-.561 1.32-.707.465-.141 1.158-.164 2.828-.164h1.832c1.494 0 2.45.078 3.492-.453a4.163 4.163 0 0 0 1.82-1.82c.531-1.042.453-1.999.453-3.492V8.266c0-1.493.078-2.45-.453-3.492a4.163 4.163 0 0 0-1.82-1.82c-1.042-.531-1.999-.453-3.492-.453zm0 3h.531c1.494 0 2.03.078 2.129.129.22.112.4.288.512.508.05.099.125.635.125 2.129v11.469c0 1.493-.075 2.03-.125 2.129a1.174 1.174 0 0 1-.512.508c-.099.05-.635.129-2.129.129h-1.832c-1.67 0-2.648-.022-3.699.297v-.004c-.744.226-1.41.633-2.035 1.094V12.536c0-2.987.077-4.272.418-4.941a3.84 3.84 0 0 1 1.676-1.676c.669-.341 1.954-.418 4.941-.418z"/>
      <path d="M6.934 2.5c-1.493 0-2.45-.078-3.492.453a4.158 4.158 0 0 0-1.82 1.82c-.531 1.042-.453 1.999-.453 3.492v11.469c0 1.493-.078 2.45.453 3.492a4.163 4.163 0 0 0 1.82 1.82c1.042.531 1.999.453 3.492.453h1.832c1.67 0 2.364.023 2.828.164.482.146.931.387 1.32.707.375.309.777.873 1.703 2.262l.133.199a1.5 1.5 0 0 0 2.75-.829V12.534c0-2.987.076-4.692-.746-6.305a6.825 6.825 0 0 0-2.984-2.984c-1.613-.822-3.318-.746-6.305-.746zm0 3h.531c2.987 0 4.272.077 4.941.418a3.84 3.84 0 0 1 1.676 1.676c.341.669.418 1.954.418 4.941v11.352c-.625-.46-1.291-.868-2.035-1.094v.004c-1.051-.319-2.03-.297-3.699-.297H6.934c-1.493 0-2.03-.079-2.129-.129-.22-.112-.4-.288-.512-.508-.05-.099-.125-.635-.125-2.129V8.265c0-1.493.075-2.03.125-2.129.112-.22.292-.396.512-.508.099-.05.635-.129 2.129-.129z"/>
    </symbol>
    <symbol id="icon-dot" viewBox="0 0 32 32">
      <path fill="#fff" style="fill:var(--color1, #fff)" d="M32 16c0 8.837-7.163 16-16 16S0 24.837 0 16 7.163 0 16 0s16 7.163 16 16z"/>
      <path fill="#38cd3e" style="fill:var(--color2, #38cd3e)" d="M26.667 16c0 5.891-4.776 10.667-10.667 10.667S5.333 21.891 5.333 16 10.109 5.333 16 5.333 26.667 10.109 26.667 16z"/>
    </symbol>
    <symbol id="icon-eye-off" viewBox="0 0 32 32">
      <path d="M16 3.734a13.828 13.828 0 0 0-3.166.362 1.603 1.603 0 0 0-1.192 1.933l-.002-.011a1.602 1.602 0 0 0 1.936 1.191l-.011.002a10.53 10.53 0 0 1 2.431-.278H16c7.541 0 12.065 7.896 12.728 9.091-.654 1.112-1.334 2.209-2.166 3.197a1.6 1.6 0 0 0 .191 2.254l.002.002a1.597 1.597 0 0 0 2.252-.192l.002-.002a26.324 26.324 0 0 0 3.069-4.531 1.601 1.601 0 0 0 .015-1.478l.004.009S26.554 3.735 16.003 3.733zm-7.706 2.76a1.593 1.593 0 0 0-1.188.318l.004-.003a26.219 26.219 0 0 0-7.188 8.434 1.598 1.598 0 0 0-.015 1.481l-.004-.009S5.448 28.265 16 28.265h.025-.001a15.031 15.031 0 0 0 8.866-3.072 1.6 1.6 0 0 0 .3-2.247l.003.004a1.6 1.6 0 0 0-2.247-.3l.004-.003a11.82 11.82 0 0 1-6.963 2.416c-7.53-.01-12.047-7.886-12.713-9.084 1.505-2.546 3.42-4.829 5.775-6.628a1.6 1.6 0 0 0 .298-2.245l.003.004a1.6 1.6 0 0 0-1.048-.615l-.008-.001zm4.934 5.081-.056-.001a1.59 1.59 0 0 0-1.091.43l.001-.001a5.608 5.608 0 0 0-1.375 6.194 5.613 5.613 0 0 0 1.234 1.863c.532.532 1.165.95 1.863 1.231s1.445.423 2.197.409a5.608 5.608 0 0 0 3.997-1.781c.267-.285.431-.67.431-1.092 0-.462-.195-.877-.508-1.169l-.001-.001a1.594 1.594 0 0 0-1.092-.431c-.462 0-.877.195-1.169.508l-.001.001a2.394 2.394 0 0 1-3.453.062 2.397 2.397 0 0 1-.494-2.675c.131-.294.317-.558.553-.778.315-.293.511-.71.511-1.172 0-.422-.163-.806-.43-1.092l.001.001a1.596 1.596 0 0 0-1.113-.506h-.003z"/>
      <path d="M1.334-.266A1.597 1.597 0 0 0 .203 2.465l29.331 29.331c.29.289.689.468 1.131.468s.842-.179 1.131-.468a1.597 1.597 0 0 0 .001-2.262L2.466.203a1.591 1.591 0 0 0-1.131-.469z"/>
    </symbol>
    <symbol id="icon-heart" viewBox="0 0 32 32">
      <path d="M9.399 2.767a8.57 8.57 0 0 0-8.565 8.568 8.56 8.56 0 0 0 2.51 6.055L15.13 29.178a1.23 1.23 0 0 0 1.74 0L28.656 17.39a8.554 8.554 0 0 0 1.858-2.776v-.002a8.577 8.577 0 0 0 0-6.555 8.577 8.577 0 0 0-4.637-4.637 8.577 8.577 0 0 0-6.555 0 8.567 8.567 0 0 0-2.779 1.858L16 5.821l-.543-.543a8.57 8.57 0 0 0-6.058-2.51zm0 2.461c1.619 0 3.172.643 4.317 1.788l1.413 1.413a1.23 1.23 0 0 0 1.74 0l1.413-1.413A6.11 6.11 0 0 1 22.6 5.227a6.09 6.09 0 0 1 4.315 1.789 6.104 6.104 0 0 1 0 8.633L15.999 26.567 5.083 15.649a6.103 6.103 0 0 1 4.315-10.42z"/>
    </symbol>
    <symbol id="icon-home" viewBox="0 0 34 32">
      <path fill="#8a8a89" style="fill:var(--color3, #8a8a89)" d="M1.811 0h30.672c1 0 1.811.811 1.811 1.811v28.377c0 1-.811 1.811-1.811 1.811H1.811c-1 0-1.811-.811-1.811-1.811V1.811C0 .811.811 0 1.811 0z"/>
      <path fill="#b0adad" style="fill:var(--color4, #b0adad)" d="m13.162 13.283 5.699 9.872H7.462l5.699-9.872z"/>
      <path fill="#a8a6a6" style="fill:var(--color5, #a8a6a6)" d="m19.14 11.23 7.425 12.86h-14.85l7.425-12.86zM17.57 10.204c0 .967-.77 1.751-1.721 1.751s-1.721-.784-1.721-1.751c0-.967.77-1.751 1.721-1.751s1.721.784 1.721 1.751z"/>
    </symbol>
    <symbol id="icon-log-in" viewBox="0 0 32 32">
      <path fill="#f4c550" style="fill:var(--color6, #f4c550)" d="M20 2.4a1.6 1.6 0 1 0 0 3.2h1.6c2.24 0 3.138.083 3.491.263.452.23.817.595 1.047 1.047.18.352.262 1.25.262 3.491v11.2c0 2.24-.083 3.138-.262 3.491-.23.452-.595.817-1.047 1.047-.352.18-1.25.262-3.491.262H20a1.6 1.6 0 1 0 0 3.2h1.6c2.24 0 3.585.083 4.944-.609a5.602 5.602 0 0 0 2.447-2.447c.692-1.359.609-2.704.609-4.944v-11.2c0-2.24.083-3.585-.609-4.944a5.602 5.602 0 0 0-2.447-2.447c-1.359-.692-2.704-.609-4.944-.609z"/>
      <path fill="#f4c550" style="fill:var(--color6, #f4c550)" d="M13.334 7.734a1.597 1.597 0 0 0-1.131 2.731l3.934 3.934H4a1.6 1.6 0 1 0 0 3.2h12.137l-3.934 3.934a1.597 1.597 0 0 0 0 2.262c.29.289.689.468 1.131.468s.842-.179 1.131-.468l6.666-6.666c.168-.177.296-.393.369-.632l.003-.011a1.47 1.47 0 0 0 .043-.214l.001-.008c.023-.076.042-.166.052-.258l.001-.007c-.012-.1-.03-.19-.056-.277l.003.011a1.634 1.634 0 0 0-.046-.239l.003.011a1.945 1.945 0 0 0-.027-.13l.002.011a1.608 1.608 0 0 0-.347-.519l-6.666-6.666a1.593 1.593 0 0 0-1.131-.469z"/>
    </symbol>
    <symbol id="icon-logo" viewBox="0 0 152 32">
      <path fill="#ffda44" style="fill:var(--color7, #ffda44)" d="M16 32c8.837 0 16-7.163 16-16S24.837 0 16 0 0 7.163 0 16s7.163 16 16 16z"/>
      <path fill="#338af3" style="fill:var(--color8, #338af3)" d="M0 16C0 7.164 7.163 0 16 0s16 7.163 16 16z"/>
      <path fill="#121417" style="fill:var(--color9, #121417)" d="M52.973 21.779V24h-8.158v-2.221h8.159zM45.596 7.75V24h-2.801V7.75h2.801zm14.141 16.473c-.893 0-1.7-.145-2.422-.435a5.358 5.358 0 0 1-1.83-1.239c-.498-.528-.882-1.15-1.15-1.864s-.402-1.484-.402-2.31v-.446c0-.945.138-1.801.413-2.567s.658-1.421 1.15-1.964c.491-.551 1.071-.971 1.741-1.261s1.395-.435 2.176-.435c.863 0 1.618.145 2.266.435s1.183.699 1.607 1.228c.432.521.751 1.142.96 1.864.216.722.324 1.518.324 2.388v1.149h-9.33v-1.931h6.674v-.212a3.791 3.791 0 0 0-.29-1.362c-.171-.424-.435-.766-.792-1.027s-.833-.391-1.429-.391c-.447 0-.845.097-1.194.29-.342.186-.629.458-.859.815s-.409.789-.536 1.295a7.274 7.274 0 0 0-.178 1.685v.446c0 .528.071 1.019.212 1.473.149.446.365.837.647 1.172s.625.599 1.027.792c.402.186.859.279 1.373.279.647 0 1.224-.13 1.73-.391s.945-.629 1.317-1.105l1.417 1.373c-.26.379-.599.744-1.016 1.094-.417.342-.926.621-1.529.837-.595.216-1.287.324-2.076.324zm13.282-2.645v-5.759c0-.432-.078-.804-.234-1.116s-.394-.554-.714-.725c-.312-.171-.707-.257-1.183-.257-.439 0-.819.074-1.138.223s-.569.35-.748.603a1.45 1.45 0 0 0-.268.859h-2.678c0-.476.115-.938.346-1.384s.566-.844 1.004-1.194.964-.625 1.574-.826c.61-.201 1.295-.301 2.053-.301.908 0 1.711.152 2.411.458a3.663 3.663 0 0 1 1.663 1.384c.409.61.614 1.376.614 2.299v5.368c0 .551.037 1.045.112 1.484.082.432.197.807.346 1.127v.178h-2.757a4.774 4.774 0 0 1-.301-1.105 9.019 9.019 0 0 1-.1-1.317zm.39-4.922.022 1.663H71.5c-.499 0-.938.048-1.317.145-.379.089-.696.223-.949.402s-.443.394-.569.647c-.126.253-.19.539-.19.859s.074.614.223.882c.149.26.365.465.647.614.29.149.64.223 1.049.223.551 0 1.031-.112 1.44-.335.417-.231.744-.51.982-.837.238-.335.365-.651.38-.949l.871 1.194c-.089.305-.242.632-.458.982s-.499.685-.848 1.004a4.22 4.22 0 0 1-1.239.77c-.476.201-1.027.301-1.652.301-.789 0-1.492-.156-2.109-.469a3.75 3.75 0 0 1-1.451-1.284 3.325 3.325 0 0 1-.525-1.841c0-.64.119-1.205.357-1.696a3.34 3.34 0 0 1 1.071-1.25c.476-.335 1.057-.588 1.741-.759.685-.179 1.466-.268 2.344-.268h2.109zm7.367-2.433V24h-2.69V11.924h2.567l.123 2.299zm3.694-2.377-.022 2.5a5.223 5.223 0 0 0-.536-.067 6.938 6.938 0 0 0-.558-.022c-.461 0-.867.067-1.217.201-.35.127-.644.312-.882.558-.231.238-.409.528-.536.87s-.201.726-.223 1.149l-.614.045c0-.759.074-1.462.223-2.109s.372-1.216.67-1.708a3.449 3.449 0 0 1 1.138-1.15c.461-.275.993-.413 1.596-.413.164 0 .338.015.525.045.193.03.338.063.435.1zm3.896 2.656V24h-2.69V11.924h2.534l.156 2.578zm-.48 3.014-.871-.011a7.827 7.827 0 0 1 .357-2.355 5.824 5.824 0 0 1 .982-1.842c.424-.513.93-.908 1.518-1.183.588-.283 1.243-.424 1.964-.424.58 0 1.105.082 1.574.245.476.156.882.413 1.216.77.342.357.603.822.781 1.395.179.565.268 1.261.268 2.087v7.801h-2.701v-7.812c0-.58-.085-1.038-.257-1.373a1.444 1.444 0 0 0-.725-.726c-.313-.149-.703-.223-1.172-.223-.461 0-.874.097-1.239.29s-.673.458-.926.792c-.246.335-.435.722-.569 1.161s-.201.908-.201 1.406zm20.525 4.263V24h-8.159v-2.221h8.159zM101.034 7.75V24h-2.801V7.75h2.801zm11.696 4.174V24h-2.701V11.924h2.701zm-2.879-3.17c0-.409.134-.748.402-1.016.275-.275.655-.413 1.138-.413.476 0 .852.138 1.127.413.275.268.413.606.413 1.016 0 .402-.138.737-.413 1.004s-.651.402-1.127.402c-.484 0-.863-.134-1.138-.402a1.363 1.363 0 0 1-.402-1.004zm8.036 5.748V24h-2.689V11.924h2.533l.157 2.578zm-.48 3.014-.87-.011a7.827 7.827 0 0 1 .357-2.355 5.824 5.824 0 0 1 .982-1.842c.425-.513.93-.908 1.519-1.183.587-.283 1.242-.424 1.963-.424a4.77 4.77 0 0 1 1.574.245c.477.156.882.413 1.217.77.342.357.602.822.781 1.395.179.565.269 1.261.269 2.087v7.801h-2.702v-7.812c0-.58-.085-1.038-.256-1.373a1.439 1.439 0 0 0-.726-.726c-.312-.149-.703-.223-1.171-.223-.462 0-.874.097-1.239.29s-.674.458-.927.792c-.246.335-.435.722-.569 1.161s-.201.908-.201 1.406zm17.814-5.592h2.443v11.741c0 1.086-.231 2.009-.691 2.768a4.449 4.449 0 0 1-1.931 1.73c-.825.402-1.782.603-2.867.603a6.74 6.74 0 0 1-1.541-.201 6.335 6.335 0 0 1-1.63-.647 4.037 4.037 0 0 1-1.305-1.149l1.261-1.585c.432.513.907.889 1.429 1.127s1.067.357 1.641.357c.617 0 1.142-.115 1.574-.346a2.334 2.334 0 0 0 1.015-.993c.239-.439.358-.975.358-1.607v-9.063l.246-2.734zm-8.204 6.172v-.234c0-.915.112-1.748.335-2.5.223-.759.543-1.41.96-1.953a4.18 4.18 0 0 1 1.518-1.261c.595-.298 1.269-.446 2.019-.446.782 0 1.448.141 1.998.424a3.761 3.761 0 0 1 1.395 1.216c.373.521.663 1.146.871 1.875a14.2 14.2 0 0 1 .48 2.411v.748c-.097.863-.261 1.652-.491 2.366s-.536 1.332-.915 1.853a3.892 3.892 0 0 1-1.406 1.205c-.551.283-1.202.424-1.953.424-.737 0-1.402-.153-1.998-.458a4.539 4.539 0 0 1-1.518-1.283 6.073 6.073 0 0 1-.96-1.942 8.559 8.559 0 0 1-.335-2.444zm2.689-.234v.234c0 .551.053 1.064.157 1.54.112.476.279.897.503 1.261.23.357.52.64.87.848.358.201.778.301 1.262.301.632 0 1.15-.134 1.551-.402.409-.268.722-.629.938-1.083.223-.461.379-.975.469-1.54v-2.02a4.973 4.973 0 0 0-.279-1.228 3.33 3.33 0 0 0-.547-.993 2.295 2.295 0 0 0-.871-.67c-.35-.164-.762-.246-1.239-.246-.483 0-.904.104-1.261.312a2.559 2.559 0 0 0-.882.859c-.223.365-.39.789-.502 1.272s-.168 1.001-.168 1.551zm9.777.234v-.257c0-.87.127-1.678.379-2.422a5.769 5.769 0 0 1 1.095-1.953 4.947 4.947 0 0 1 1.762-1.295c.699-.312 1.489-.469 2.367-.469.886 0 1.674.156 2.366.469a4.922 4.922 0 0 1 1.775 1.295 5.69 5.69 0 0 1 1.105 1.953c.253.744.379 1.551.379 2.422v.257c0 .87-.127 1.678-.379 2.422a5.823 5.823 0 0 1-1.105 1.953 5.123 5.123 0 0 1-1.763 1.295c-.693.305-1.477.458-2.355.458-.885 0-1.678-.153-2.377-.458a5.11 5.11 0 0 1-1.763-1.295 5.823 5.823 0 0 1-1.105-1.953 7.476 7.476 0 0 1-.379-2.422zm2.691-.257v.257c0 .543.056 1.057.167 1.54.112.484.287.908.525 1.272.239.365.544.651.915.859.373.208.815.312 1.328.312.499 0 .93-.104 1.295-.312.373-.208.678-.495.915-.859s.413-.789.525-1.272a6.43 6.43 0 0 0 .178-1.54v-.257a6.24 6.24 0 0 0-.178-1.518 3.892 3.892 0 0 0-.536-1.283 2.556 2.556 0 0 0-.915-.87c-.365-.216-.8-.324-1.305-.324-.506 0-.945.108-1.318.324a2.59 2.59 0 0 0-.904.87c-.238.372-.413.8-.525 1.283a6.669 6.669 0 0 0-.167 1.518z"/>
    </symbol>
    <symbol id="icon-star" viewBox="0 0 34 32">
      <path fill="#ffc531" style="fill:var(--color10, #ffc531)" d="m13.227 10.02 3.84-7.277 3.84 7.277c.34.644.959 1.093 1.675 1.217l8.108 1.403-5.735 5.9a2.346 2.346 0 0 0-.64 1.97l1.171 8.144-7.384-3.631a2.347 2.347 0 0 0-2.071 0l-7.384 3.631 1.171-8.144a2.347 2.347 0 0 0-.64-1.97l-5.735-5.9 8.108-1.403a2.346 2.346 0 0 0 1.675-1.217zm17.744 2.33zM8.285 28.833z"/>
      <path fill="#ffc531" style="fill:var(--color10, #ffc531)" d="m17.067 0-4.971 9.425a1.065 1.065 0 0 1-.762.55l-10.5 1.817 7.429 7.642c.231.238.335.567.287.896L7.033 30.876l9.563-4.704c.298-.146.644-.146.942 0l9.563 4.704-1.517-10.546a1.062 1.062 0 0 1 .288-.896l7.429-7.642-10.5-1.817a1.06 1.06 0 0 1-.762-.55zm0 5.487 2.708 5.129a3.627 3.627 0 0 0 2.587 1.883l5.721.988-4.046 4.162a3.627 3.627 0 0 0-.992 3.042l.829 5.742-5.208-2.558a3.627 3.627 0 0 0-3.2 0l-5.208 2.558.829-5.742a3.628 3.628 0 0 0-.992-3.042l-4.046-4.162 5.721-.988a3.634 3.634 0 0 0 2.588-1.883z"/>
    </symbol>
    <symbol id="icon-x" viewBox="0 0 32 32">
      <path d="M24 6.75h-.002c-.345 0-.657.14-.883.365l-16 16c-.227.226-.367.539-.367.885s.14.658.367.885c.226.227.539.367.885.367s.658-.14.885-.367l16-16c.227-.226.367-.539.367-.885s-.14-.658-.367-.885a1.244 1.244 0 0 0-.883-.365H24z"/>
      <path d="M8 6.75h-.002c-.345 0-.657.14-.883.365-.227.226-.367.539-.367.885s.14.658.367.885l16 16c.226.227.539.367.885.367s.658-.14.885-.367c.227-.226.367-.539.367-.885s-.14-.658-.367-.885l-16-16a1.244 1.244 0 0 0-.883-.365H8z"/>
    </symbol>
  </defs>
</svg>
